<svg width="720" height="720" viewBox="0 0 720 720" fill="none" xmlns="http://www.w3.org/2000/svg">
<path d="M109 597.037V476H157.462C166.367 476 173.794 477.32 179.743 479.96C185.692 482.6 190.164 486.264 193.159 490.952C196.153 495.602 197.65 500.96 197.65 507.028C197.65 511.756 196.705 515.912 194.814 519.498C192.922 523.044 190.322 525.959 187.012 528.245C183.742 530.49 179.999 532.086 175.783 533.032V534.214C180.393 534.411 184.707 535.711 188.726 538.114C192.784 540.518 196.074 543.886 198.596 548.22C201.118 552.515 202.378 557.637 202.378 563.587C202.378 570.009 200.783 575.741 197.591 580.785C194.439 585.789 189.77 589.748 183.584 592.664C177.399 595.579 169.775 597.037 160.713 597.037H109ZM134.59 576.116H155.453C162.584 576.116 167.785 574.756 171.055 572.038C174.325 569.28 175.961 565.616 175.961 561.045C175.961 557.696 175.153 554.741 173.537 552.18C171.922 549.619 169.617 547.61 166.623 546.152C163.668 544.694 160.141 543.965 156.044 543.965H134.59V576.116ZM134.59 526.649H153.562C157.068 526.649 160.181 526.038 162.899 524.817C165.657 523.556 167.824 521.783 169.4 519.498C171.016 517.213 171.824 514.474 171.824 511.283C171.824 506.909 170.267 503.383 167.155 500.704C164.081 498.025 159.708 496.685 154.034 496.685H134.59V526.649Z" fill="#691F40"/>
<path d="M268.185 597.037H240.762L282.546 476H315.524L357.249 597.037H329.826L299.508 503.659H298.562L268.185 597.037ZM266.471 549.462H331.245V569.437H266.471V549.462Z" fill="#691F40"/>
<path d="M501.348 476V597.037H479.245L426.586 520.857H425.7V597.037H400.109V476H422.567L474.812 552.121H475.876V476H501.348Z" fill="#691F40"/>
<path d="M550.784 597.037V476H576.374V529.368H577.97L621.527 476H652.2L607.283 530.195L652.732 597.037H622.118L588.962 547.275L576.374 562.641V597.037H550.784Z" fill="#691F40"/>
<path d="M191 161.519L387 104V352.481L191 410V161.519Z" fill="#F3177A"/>
<path d="M334 161.519L530 104V352.481L334 410V161.519Z" fill="#FF88C1"/>
<path d="M148.093 641.037C148.093 643.366 147.652 645.347 146.769 646.98C145.893 648.613 144.698 649.861 143.183 650.722C141.674 651.577 139.979 652.005 138.095 652.005C136.198 652.005 134.495 651.574 132.987 650.712C131.479 649.85 130.287 648.603 129.411 646.969C128.535 645.336 128.097 643.359 128.097 641.037C128.097 638.709 128.535 636.728 129.411 635.095C130.287 633.462 131.479 632.218 132.987 631.363C134.495 630.501 136.198 630.07 138.095 630.07C139.979 630.07 141.674 630.501 143.183 631.363C144.698 632.218 145.893 633.462 146.769 635.095C147.652 636.728 148.093 638.709 148.093 641.037ZM143.516 641.037C143.516 639.529 143.29 638.257 142.839 637.222C142.394 636.186 141.765 635.401 140.952 634.866C140.138 634.331 139.186 634.063 138.095 634.063C137.004 634.063 136.052 634.331 135.239 634.866C134.425 635.401 133.793 636.186 133.341 637.222C132.896 638.257 132.674 639.529 132.674 641.037C132.674 642.546 132.896 643.817 133.341 644.853C133.793 645.889 134.425 646.674 135.239 647.209C136.052 647.744 137.004 648.012 138.095 648.012C139.186 648.012 140.138 647.744 140.952 647.209C141.765 646.674 142.394 645.889 142.839 644.853C143.29 643.817 143.516 642.546 143.516 641.037Z" fill="#F3177A"/>
<path d="M185.882 630.362V651.713H181.983L172.694 638.275H172.538V651.713H168.024V630.362H171.985L181.201 643.79H181.389V630.362H185.882Z" fill="#F3177A"/>
<path d="M206.199 651.713V630.362H210.713V647.991H219.866V651.713H206.199Z" fill="#F3177A"/>
<path d="M243.957 630.362V651.713H239.443V630.362H243.957Z" fill="#F3177A"/>
<path d="M282.116 630.362V651.713H278.217L268.928 638.275H268.772V651.713H264.258V630.362H268.219L277.435 643.79H277.623V630.362H282.116Z" fill="#F3177A"/>
<path d="M302.433 651.713V630.362H316.82V634.084H306.947V639.171H316.08V642.893H306.947V647.991H316.862V651.713H302.433Z" fill="#F3177A"/>
<path d="M360.377 651.713V630.362H368.926C370.497 630.362 371.807 630.595 372.856 631.06C373.906 631.526 374.695 632.172 375.223 633C375.751 633.82 376.015 634.765 376.015 635.835C376.015 636.669 375.848 637.402 375.515 638.035C375.181 638.66 374.722 639.175 374.139 639.578C373.562 639.974 372.902 640.256 372.158 640.422V640.631C372.971 640.666 373.732 640.895 374.441 641.319C375.157 641.743 375.737 642.337 376.182 643.102C376.627 643.859 376.849 644.763 376.849 645.812C376.849 646.945 376.568 647.956 376.005 648.846C375.449 649.729 374.625 650.427 373.534 650.941C372.443 651.456 371.098 651.713 369.499 651.713H360.377ZM364.891 648.022H368.572C369.83 648.022 370.747 647.783 371.324 647.303C371.901 646.816 372.189 646.17 372.189 645.364C372.189 644.773 372.047 644.252 371.762 643.8C371.477 643.348 371.07 642.994 370.542 642.737C370.021 642.48 369.399 642.351 368.676 642.351H364.891V648.022ZM364.891 639.296H368.238C368.857 639.296 369.406 639.189 369.885 638.973C370.372 638.751 370.754 638.438 371.032 638.035C371.317 637.632 371.459 637.149 371.459 636.586C371.459 635.814 371.185 635.192 370.636 634.72C370.094 634.247 369.322 634.011 368.321 634.011H364.891V639.296Z" fill="#F3177A"/>
<path d="M400.054 651.713H395.216L402.587 630.362H408.404L415.765 651.713H410.927L405.579 635.241H405.412L400.054 651.713ZM399.751 643.321H411.177V646.844H399.751V643.321Z" fill="#F3177A"/>
<path d="M452.78 630.362V651.713H448.881L439.592 638.275H439.435V651.713H434.921V630.362H438.883L448.099 643.79H448.286V630.362H452.78Z" fill="#F3177A"/>
<path d="M473.096 651.713V630.362H477.611V639.776H477.892L485.575 630.362H490.986L483.063 639.922L491.08 651.713H485.68L479.831 642.935L477.611 645.645V651.713H473.096Z" fill="#F3177A"/>
<path d="M514.438 630.362V651.713H509.924V630.362H514.438Z" fill="#F3177A"/>
<path d="M552.598 630.362V651.713H548.698L539.41 638.275H539.253V651.713H534.739V630.362H538.701L547.917 643.79H548.104V630.362H552.598Z" fill="#F3177A"/>
<path d="M587.072 637.263C586.926 636.756 586.721 636.308 586.457 635.919C586.192 635.522 585.869 635.189 585.487 634.918C585.112 634.64 584.681 634.428 584.194 634.282C583.715 634.136 583.183 634.063 582.599 634.063C581.508 634.063 580.549 634.334 579.722 634.876C578.902 635.418 578.262 636.207 577.804 637.243C577.345 638.271 577.116 639.529 577.116 641.017C577.116 642.504 577.341 643.769 577.793 644.811C578.245 645.854 578.884 646.65 579.711 647.199C580.538 647.741 581.515 648.012 582.641 648.012C583.663 648.012 584.535 647.831 585.258 647.47C585.987 647.101 586.543 646.584 586.926 645.916C587.315 645.249 587.509 644.46 587.509 643.55L588.427 643.685H582.922V640.287H591.857V642.977C591.857 644.853 591.461 646.466 590.668 647.814C589.876 649.155 588.785 650.191 587.395 650.921C586.005 651.643 584.413 652.005 582.62 652.005C580.618 652.005 578.86 651.563 577.345 650.681C575.83 649.791 574.648 648.53 573.8 646.896C572.959 645.256 572.539 643.31 572.539 641.058C572.539 639.328 572.789 637.785 573.289 636.429C573.797 635.067 574.506 633.914 575.416 632.968C576.327 632.023 577.387 631.304 578.596 630.81C579.805 630.317 581.115 630.07 582.526 630.07C583.736 630.07 584.861 630.247 585.904 630.602C586.947 630.949 587.871 631.443 588.677 632.082C589.49 632.722 590.154 633.483 590.668 634.365C591.183 635.241 591.513 636.207 591.659 637.263H587.072Z" fill="#F3177A"/>
</svg>
