<svg width="222" height="182" viewBox="0 0 222 182" fill="none" xmlns="http://www.w3.org/2000/svg">
<path fill-rule="evenodd" clip-rule="evenodd" d="M116.151 70.9343V77.0524H106.285V70.9343H100.958V82.6037C100.944 85.1485 102.25 87.5267 104.405 88.8824L106.285 90.0814V82.3797H116.151V90.0814L118.052 88.8705C120.2 87.5089 121.499 85.1286 121.479 82.5839V70.9343H116.151Z" fill="#FF6B00"/>
<path fill-rule="evenodd" clip-rule="evenodd" d="M91.5523 40.1574C92.2222 40.2763 93.2211 40.8332 93.2211 41.0175C93.2211 41.2018 92.0081 41.3426 91.366 41.1325C90.7219 40.9204 90.2779 40.3774 90.3176 40.1534C90.3572 39.9314 90.8824 40.0385 91.5523 40.1574ZM148.037 84.9008C147.351 95.7121 141.581 105.495 132.286 111.379L111.219 124.814L90.0718 111.329C80.1762 105.067 74.286 94.2851 74.3276 82.4928V44.3015H85.3985L88.4863 44.2718C89.0472 46.5391 90.1035 46.4103 92.4303 45.4173C93.2092 45.0864 94.1248 44.6603 95.2129 44.1945C96.9887 43.4315 99.038 44.0895 99.2302 45.2746L99.5988 44.6642C101.034 42.1115 100.271 40.9977 98.7149 40.6707C98.6019 40.6469 98.1679 40.9422 98.049 40.9244C96.7508 40.7123 95.2406 40.744 94.5826 40.3556C91.8536 38.7403 91.6237 38.8493 91.2332 38.7621C89.6081 38.4054 86.0089 37.9872 84.5205 36.0132C84.3917 35.8388 83.2719 37.4204 83.9775 38.9742H69.0002V82.4928C68.9527 96.1085 75.7645 108.581 87.2219 115.83L108.355 129.305L111.219 131.131L114.083 129.305L135.15 115.872C145.034 109.613 151.473 99.5292 153.053 88.2026L148.037 84.9008Z" fill="#FF6B00"/>
<path fill-rule="evenodd" clip-rule="evenodd" d="M107.408 50.812C108.077 50.931 109.076 51.4859 109.076 51.6702C109.076 51.8565 107.863 51.9972 107.219 51.7852C106.577 51.5731 106.133 51.032 106.173 50.8081C106.212 50.5841 106.738 50.6911 107.408 50.812ZM137.455 77.9344V82.5998C137.483 90.6503 133.42 98.0507 126.584 102.379L111.217 112.178L95.7976 102.347C88.9997 98.0467 84.9487 90.6344 84.9764 82.5284V54.9542H97.0224L97.0264 54.9483H101.119L104.338 54.9245C104.9 57.1938 105.957 57.0649 108.284 56.07C109.06 55.741 109.978 55.3129 111.066 54.8472C112.842 54.0861 114.891 54.7422 115.083 55.9273L115.452 55.3169C116.887 52.7662 116.124 51.6504 114.568 51.3254C114.455 51.2996 114.021 51.5969 113.902 51.5771C112.604 51.365 111.094 51.3987 110.436 51.0082C107.707 49.395 107.477 49.502 107.087 49.4168C105.461 49.06 101.862 48.6399 100.374 46.6659C100.245 46.4935 99.1252 48.0731 99.8308 49.6269H79.653V82.5284C79.6173 92.4577 84.588 101.555 92.9496 106.846L108.355 116.671L111.219 118.496L114.083 116.671L129.45 106.87C137.83 101.565 142.82 92.4815 142.785 82.5799V81.4404L137.455 77.9344Z" fill="#FF6B00"/>
<path fill-rule="evenodd" clip-rule="evenodd" d="M126.805 82.5997C126.828 86.9698 124.589 91.0525 120.889 93.3793L111.217 99.543L101.525 93.3634C97.8311 91.0288 95.5975 86.9381 95.6332 82.568V65.6069H114.737V65.6029H117.04L120.258 65.5791C120.821 67.8464 121.876 67.7176 124.202 66.7247C124.981 66.3937 125.899 65.9676 126.987 65.5019C128.761 64.7388 130.812 65.3968 131.004 66.582L131.373 65.9716C132.806 63.4209 132.043 62.305 130.487 61.978C130.374 61.9542 129.94 62.2496 129.823 62.2317C128.523 62.0197 127.015 62.0514 126.355 61.6629C123.626 60.0496 123.396 60.1567 123.005 60.0695C121.38 59.7127 117.781 59.2945 116.295 57.3206C116.164 57.1462 115.028 58.7436 115.759 60.3073L113.306 60.2934L95.6332 60.2815H90.3059V82.568C90.2623 88.7654 93.4333 94.5625 98.6774 97.8663L111.219 105.861L114.083 104.038L123.752 97.8703C128.997 94.5684 132.172 88.7753 132.132 82.5799V74.4283L126.805 70.9204V82.5997ZM123.324 61.4667C123.994 61.5856 124.993 62.1405 124.993 62.3249C124.993 62.5092 123.782 62.6499 123.138 62.4398C122.496 62.2278 122.052 61.6867 122.092 61.4627C122.131 61.2388 122.654 61.3458 123.324 61.4647V61.4667Z" fill="#FF6B00"/>
<path fill-rule="evenodd" clip-rule="evenodd" d="M26.831 148.03L30.0644 141.075H35.5575L29.3831 152.508V159.837H24.2775V152.663L18.106 141.077H23.6232L26.831 148.03Z" fill="#00507F"/>
<path fill-rule="evenodd" clip-rule="evenodd" d="M16.0775 159.835H10.9833V152.189H5.0928V159.835H0V141.077H5.0928V148.032H10.9833V141.077H16.0775V159.835Z" fill="#00507F"/>
<path fill-rule="evenodd" clip-rule="evenodd" d="M53.5072 150.06C53.5072 152.242 53.0999 154.054 52.288 155.501C51.5087 156.914 50.3093 158.051 48.8559 158.754C47.3797 159.476 45.6452 159.837 43.6524 159.837H37.583V141.077H44.0768C46.0951 141.077 47.8055 141.423 49.2093 142.116C50.6117 142.808 51.6791 143.822 52.41 145.157C53.141 146.492 53.5072 148.124 53.5072 150.059V150.06ZM48.2455 150.239C48.2455 149.101 48.0937 148.157 47.7913 147.409C47.4861 146.661 47.0305 146.1 46.4244 145.728C45.8169 145.356 45.0505 145.169 44.1279 145.169H42.6517V155.679H43.7815C45.3202 155.679 46.45 155.232 47.1682 154.34C47.8864 153.445 48.2469 152.08 48.2469 150.24L48.2455 150.239Z" fill="#00507F"/>
<path fill-rule="evenodd" clip-rule="evenodd" d="M63.0142 141.077C64.7175 141.077 66.1326 141.284 67.2625 141.698C68.3909 142.114 69.2397 142.732 69.8089 143.553C70.378 144.374 70.6619 145.396 70.6619 146.619C70.6619 147.382 70.5342 148.074 70.2787 148.699C70.0218 149.323 69.6541 149.881 69.1801 150.374C68.6804 150.885 68.107 151.319 67.481 151.662L72.9457 159.835H67.1972L63.22 153.011H61.9369V159.838H56.8696V141.075H63.0156L63.0142 141.077ZM62.939 144.913H61.9369V149.2H62.8879C63.6643 149.2 64.3016 149.028 64.7984 148.686C65.2952 148.343 65.5436 147.731 65.5436 146.851C65.5436 146.243 65.3378 145.769 64.9261 145.426C64.5159 145.085 63.8531 144.913 62.939 144.913Z" fill="#00507F"/>
<path fill-rule="evenodd" clip-rule="evenodd" d="M136.116 148.03L139.35 141.075H144.841L138.67 152.508V159.837H133.563V152.663L127.391 141.077H132.908L136.116 148.03Z" fill="#00507F"/>
<path fill-rule="evenodd" clip-rule="evenodd" d="M216.89 159.835H211.823V145.221H207.241V141.077H221.459V145.221H216.89V159.835Z" fill="#00507F"/>
<path fill-rule="evenodd" clip-rule="evenodd" d="M204.559 159.835H197.912L191.06 146.621H190.946C190.989 147.021 191.027 147.505 191.06 148.069C191.095 148.634 191.125 149.21 191.15 149.795C191.176 150.382 191.189 150.91 191.189 151.38V159.835H186.698V141.077H193.318L200.145 154.112H200.222C200.161 153.086 200.112 152.06 200.076 151.032C200.056 150.541 200.044 150.049 200.043 149.558V141.077H204.559V159.835Z" fill="#00507F"/>
<path fill-rule="evenodd" clip-rule="evenodd" d="M183.412 159.835H172.275V141.077H183.412V145.143H177.344V148.096H182.965V152.162H177.344V155.705H183.412V159.835Z" fill="#00507F"/>
<path fill-rule="evenodd" clip-rule="evenodd" d="M155.041 159.835L151.206 146.324H151.091C151.123 146.675 151.162 147.15 151.2 147.749C151.238 148.348 151.274 148.994 151.308 149.687C151.342 150.379 151.359 151.047 151.359 151.688V159.835H146.868V141.077H153.619L157.532 154.395H157.634L161.471 141.077H168.233V159.835H163.576V151.611C163.576 151.021 163.586 150.386 163.607 149.705C163.642 148.585 163.696 147.467 163.767 146.35H163.654L159.867 159.835H155.041Z" fill="#00507F"/>
<path fill-rule="evenodd" clip-rule="evenodd" d="M121.848 159.837L120.923 156.32H114.829L113.878 159.837H108.31L114.43 141H121.194L127.391 159.835L121.848 159.837ZM119.871 152.164L119.062 149.083C118.977 148.75 118.853 148.273 118.69 147.653C118.528 147.032 118.368 146.391 118.209 145.728C118.078 145.186 117.956 144.639 117.844 144.093C117.767 144.519 117.658 145.048 117.517 145.677C117.376 146.306 117.229 146.927 117.08 147.543C116.93 148.159 116.799 148.673 116.69 149.083L115.881 152.164H119.871Z" fill="#00507F"/>
<path fill-rule="evenodd" clip-rule="evenodd" d="M86.1633 159.837L85.2392 156.32H79.1443L78.1948 159.837H72.6265L78.7469 141H85.5089L91.706 159.835L86.1633 159.837ZM84.1875 152.164L83.3784 149.083C83.2932 148.75 83.1683 148.273 83.0065 147.653C82.8433 147.032 82.6843 146.391 82.5253 145.728C82.3933 145.186 82.2713 144.641 82.1591 144.093C82.0825 144.519 81.9746 145.048 81.8327 145.677C81.6907 146.306 81.546 146.927 81.3969 147.543C81.272 148.059 81.1414 148.571 81.0052 149.083L80.1961 152.164H84.1875Z" fill="#00507F"/>
<path fill-rule="evenodd" clip-rule="evenodd" d="M100.227 141.077C102.604 141.077 104.386 141.595 105.569 142.629C106.755 143.666 107.348 145.135 107.348 147.044C107.351 147.878 107.227 148.71 106.982 149.508C106.742 150.287 106.336 151.005 105.789 151.611C105.236 152.226 104.506 152.714 103.595 153.073C102.684 153.433 101.561 153.613 100.227 153.613H98.8016V159.837H93.7344V141.077H100.227ZM100.11 145.17H98.8016V149.481H99.8023C100.238 149.481 100.645 149.406 101.023 149.257C101.398 149.106 101.7 148.863 101.926 148.526C102.153 148.188 102.266 147.736 102.266 147.172C102.266 146.581 102.09 146.1 101.741 145.728C101.389 145.356 100.847 145.17 100.11 145.17Z" fill="#00507F"/>
<path fill-rule="evenodd" clip-rule="evenodd" d="M78.9066 171.807L77.3495 172.105C76.8896 172.301 76.4993 172.587 76.1771 172.962C75.8421 173.359 75.5909 173.821 75.4376 174.318C75.2673 174.846 75.1807 175.442 75.1807 176.105C75.1807 176.982 75.317 177.744 75.5923 178.39C75.8663 179.036 76.275 179.535 76.8215 179.889C77.3666 180.241 78.0507 180.418 78.8697 180.418C79.3381 180.418 79.7781 180.378 80.1897 180.299C80.6014 180.221 81.0031 180.123 81.3948 180.002V181.061C81.013 181.203 80.6141 181.311 80.194 181.379C79.7739 181.45 79.2756 181.484 78.698 181.484C77.6348 181.484 76.7477 181.263 76.0337 180.823C75.3198 180.38 74.7605 179.725 74.4327 178.952C74.0778 178.146 73.9004 177.195 73.9004 176.097C73.9004 175.307 74.0097 174.583 74.2325 173.927C74.454 173.271 74.779 172.707 75.2048 172.228C75.6306 171.751 76.1558 171.384 76.7775 171.124C77.4006 170.863 78.1146 170.734 78.9208 170.734C79.4502 170.734 79.9598 170.786 80.4509 170.891C80.942 170.996 81.3849 171.147 81.7809 171.343L81.2955 172.372C80.9406 172.211 80.573 172.078 80.1968 171.974L78.9066 171.807Z" fill="#FF6B00"/>
<path fill-rule="evenodd" clip-rule="evenodd" d="M110.698 178.557C110.698 179.178 110.543 179.707 110.237 180.143C109.929 180.579 109.499 180.911 108.945 181.141C108.392 181.368 107.742 181.483 106.994 181.483C106.598 181.483 106.223 181.464 105.869 181.426C105.542 181.392 105.218 181.338 104.897 181.261C104.629 181.2 104.368 181.111 104.116 180.997V179.832C104.476 179.978 104.911 180.116 105.428 180.242C105.942 180.37 106.481 180.432 107.043 180.432C107.568 180.432 108.011 180.361 108.373 180.219C108.735 180.08 109.012 179.877 109.199 179.613C109.388 179.348 109.483 179.031 109.483 178.658C109.483 178.3 109.404 178.001 109.246 177.761C109.09 177.52 108.829 177.3 108.464 177.102C107.983 176.855 107.485 176.644 106.972 176.469C106.568 176.33 106.175 176.156 105.798 175.951C105.485 175.781 105.197 175.565 104.947 175.311C104.718 175.073 104.542 174.79 104.43 174.481C104.308 174.134 104.248 173.77 104.254 173.402C104.254 172.844 104.396 172.366 104.68 171.968C104.964 171.57 105.357 171.264 105.858 171.053C106.362 170.84 106.941 170.734 107.594 170.734C108.152 170.734 108.667 170.786 109.143 170.891C109.617 170.996 110.051 171.137 110.447 171.313L110.069 172.357C109.68 172.196 109.279 172.065 108.87 171.964C108.443 171.859 108.004 171.807 107.564 171.807C107.117 171.807 106.741 171.873 106.431 172.004C106.148 172.116 105.903 172.309 105.727 172.558C105.561 172.81 105.476 173.107 105.483 173.409C105.483 173.775 105.561 174.082 105.716 174.325C105.872 174.566 106.119 174.783 106.461 174.972C106.802 175.159 107.253 175.357 107.815 175.561C108.431 175.785 108.952 176.022 109.382 176.273C109.811 176.523 110.138 176.828 110.362 177.189C110.586 177.548 110.698 178.005 110.698 178.557Z" fill="#FF6B00"/>
<path fill-rule="evenodd" clip-rule="evenodd" d="M145.339 181.341H144.118V171.959H140.826V170.884H148.616V171.957H145.339V181.341Z" fill="#FF6B00"/>
<path fill-rule="evenodd" clip-rule="evenodd" d="M116.773 181.341H115.55V171.959H112.26V170.884H120.049V171.957H116.773V181.341Z" fill="#FF6B00"/>
<path fill-rule="evenodd" clip-rule="evenodd" d="M101.748 181.341H95.928V170.884H101.748V171.957H97.1416V175.34H101.484V176.398H97.1416V180.268H101.748V181.341Z" fill="#FF6B00"/>
<path fill-rule="evenodd" clip-rule="evenodd" d="M92.3183 181.341H91.1019V176.413H85.6102V181.341H84.3938V170.884H85.6102V175.34H91.1033V170.884H92.3183V181.341Z" fill="#FF6B00"/>
<path fill-rule="evenodd" clip-rule="evenodd" d="M61.607 176.097C61.6155 176.843 61.5119 177.584 61.299 178.298C61.1145 178.921 60.8036 179.5 60.3877 179.999C59.9804 180.476 59.4665 180.852 58.8888 181.097C58.2927 181.355 57.6014 181.483 56.8165 181.483C56.0046 181.483 55.2978 181.355 54.6945 181.097C54.1126 180.855 53.5973 180.478 53.1928 179.995C52.7812 179.493 52.4774 178.912 52.2986 178.288C52.0928 177.571 51.992 176.828 52.0005 176.083C52.0005 175.016 52.1779 174.079 52.5314 173.273C52.8592 172.495 53.4199 171.838 54.1367 171.392C54.8535 170.944 55.7548 170.719 56.8364 170.719C57.8711 170.719 58.7426 170.941 59.4509 171.385C60.162 171.832 60.7227 172.484 61.0591 173.254C61.4239 174.058 61.607 175.006 61.607 176.097ZM53.2822 176.097C53.2822 176.985 53.4085 177.752 53.6612 178.401C53.9138 179.048 54.2999 179.551 54.8237 179.901C55.3446 180.256 56.0089 180.432 56.8151 180.432C57.6242 180.432 58.2898 180.255 58.8065 179.901C59.3246 179.549 59.7064 179.05 59.9548 178.401C60.2032 177.752 60.3267 176.985 60.3267 176.097C60.3267 174.749 60.0428 173.693 59.4793 172.932C58.913 172.173 58.0329 171.792 56.8364 171.792C56.0259 171.792 55.3588 171.967 54.835 172.315C54.3099 172.663 53.9195 173.156 53.664 173.798C53.4085 174.44 53.2822 175.206 53.2822 176.097Z" fill="#FF6B00"/>
<path fill-rule="evenodd" clip-rule="evenodd" d="M159.997 176.097C160.005 176.843 159.902 177.584 159.689 178.298C159.504 178.921 159.194 179.5 158.778 179.999C158.37 180.476 157.856 180.852 157.279 181.097C156.683 181.355 155.993 181.483 155.206 181.483C154.395 181.483 153.688 181.355 153.084 181.097C152.503 180.854 151.987 180.476 151.581 179.995C151.17 179.493 150.866 178.912 150.687 178.288C150.483 177.571 150.383 176.828 150.392 176.083C150.392 175.016 150.568 174.079 150.921 173.273C151.249 172.495 151.81 171.838 152.527 171.392C153.243 170.944 154.145 170.719 155.226 170.719C156.262 170.719 157.133 170.941 157.841 171.385C158.552 171.832 159.113 172.484 159.449 173.254C159.814 174.058 159.997 175.006 159.997 176.097ZM151.672 176.097C151.672 176.985 151.798 177.753 152.051 178.401C152.304 179.048 152.69 179.551 153.214 179.901C153.735 180.256 154.399 180.432 155.205 180.432C156.014 180.432 156.68 180.255 157.196 179.901C157.715 179.549 158.096 179.05 158.346 178.401C158.593 177.753 158.717 176.985 158.717 176.097C158.717 174.749 158.433 173.693 157.869 172.932C157.304 172.173 156.423 171.792 155.226 171.792C154.416 171.792 153.749 171.967 153.225 172.315C152.69 172.675 152.28 173.193 152.054 173.798C151.8 174.44 151.672 175.206 151.672 176.097Z" fill="#FF6B00"/>
<path fill-rule="evenodd" clip-rule="evenodd" d="M138.693 181.341L137.406 178.022H133.214L131.934 181.341H130.705L134.796 170.841H135.888L139.951 181.341H138.693ZM137.041 176.942L135.818 173.645L135.316 172.106C135.226 172.484 135.121 172.857 135.003 173.227L134.867 173.645L133.622 176.942H137.041Z" fill="#FF6B00"/>
<path fill-rule="evenodd" clip-rule="evenodd" d="M125.186 170.884C126.045 170.884 126.754 170.989 127.315 171.202C127.874 171.415 128.293 171.737 128.57 172.171C128.847 172.604 128.984 173.158 128.984 173.831C128.984 174.384 128.885 174.846 128.683 175.215C128.495 175.571 128.226 175.879 127.897 176.113C127.579 176.339 127.23 176.516 126.861 176.641L129.728 181.339H128.311L125.752 176.978H123.578V181.341H122.361V170.884H125.186ZM125.115 171.936H123.578V175.948H125.236C126.09 175.948 126.717 175.774 127.121 175.426C127.524 175.077 127.725 174.566 127.725 173.888C127.725 173.178 127.512 172.674 127.087 172.379C126.659 172.083 126.002 171.936 125.115 171.936Z" fill="#FF6B00"/>
<path fill-rule="evenodd" clip-rule="evenodd" d="M67.4875 170.884C68.3476 170.884 69.0559 170.989 69.6166 171.202C70.1772 171.415 70.5945 171.737 70.8713 172.171C71.1481 172.604 71.2858 173.158 71.2858 173.831C71.2858 174.384 71.1864 174.846 70.9863 175.215C70.7847 175.584 70.5236 175.882 70.1985 176.113C69.8806 176.339 69.5314 176.516 69.1624 176.641L72.0296 181.339H70.6144L68.0538 176.978H65.8793V181.341H64.6643V170.884H67.4875ZM67.4165 171.936H65.8793V175.948H67.54C68.3916 175.948 69.0204 175.774 69.4235 175.426C69.8267 175.077 70.0282 174.566 70.0282 173.888C70.0282 173.178 69.8139 172.674 69.3881 172.379C68.9608 172.083 68.3036 171.936 67.4165 171.936Z" fill="#FF6B00"/>
<path fill-rule="evenodd" clip-rule="evenodd" d="M165.879 170.884C166.737 170.884 167.446 170.989 168.006 171.202C168.567 171.415 168.986 171.737 169.261 172.171C169.538 172.604 169.677 173.158 169.677 173.831C169.677 174.384 169.576 174.846 169.376 175.215C169.187 175.571 168.919 175.879 168.59 176.113C168.272 176.339 167.921 176.516 167.552 176.641L170.419 181.339H169.004L166.443 176.978H164.269V181.341H163.054V170.884H165.879ZM165.808 171.936H164.269V175.948H165.928C166.781 175.948 167.41 175.774 167.812 175.426C168.216 175.077 168.418 174.566 168.418 173.888C168.418 173.178 168.205 172.674 167.778 172.379C167.352 172.083 166.693 171.936 165.808 171.936Z" fill="#FF6B00"/>
<path d="M34.2783 14V0.90908H39.4431C40.436 0.90908 41.2819 1.09871 41.9807 1.47797C42.6796 1.85297 43.2123 2.37499 43.5787 3.04402C43.9495 3.7088 44.1349 4.47584 44.1349 5.34516C44.1349 6.21448 43.9474 6.98152 43.5724 7.6463C43.1974 8.31107 42.654 8.82882 41.9424 9.19956C41.235 9.5703 40.3785 9.75567 39.3728 9.75567H36.0809V7.53763H38.9253C39.458 7.53763 39.8969 7.44601 40.2421 7.26277C40.5915 7.07527 40.8515 6.81746 41.0219 6.48934C41.1966 6.15695 41.284 5.77556 41.284 5.34516C41.284 4.9105 41.1966 4.53124 41.0219 4.20738C40.8515 3.87925 40.5915 3.6257 40.2421 3.44672C39.8927 3.26348 39.4495 3.17186 38.9126 3.17186H37.0461V14H34.2783Z" fill="#00507F"/>
<path d="M61.0224 7.45453C61.0224 8.88209 60.7519 10.0966 60.2107 11.098C59.6737 12.0994 58.9408 12.8643 58.0118 13.3927C57.0871 13.9169 56.0473 14.179 54.8925 14.179C53.7291 14.179 52.6851 13.9148 51.7604 13.3864C50.8357 12.8579 50.1048 12.093 49.5679 11.0916C49.031 10.0902 48.7625 8.87783 48.7625 7.45453C48.7625 6.02698 49.031 4.81249 49.5679 3.81107C50.1048 2.80965 50.8357 2.04686 51.7604 1.52272C52.6851 0.994307 53.7291 0.730103 54.8925 0.730103C56.0473 0.730103 57.0871 0.994307 58.0118 1.52272C58.9408 2.04686 59.6737 2.80965 60.2107 3.81107C60.7519 4.81249 61.0224 6.02698 61.0224 7.45453ZM58.2163 7.45453C58.2163 6.52982 58.0778 5.74999 57.8009 5.11505C57.5281 4.4801 57.1425 3.99857 56.6439 3.67044C56.1453 3.34232 55.5615 3.17826 54.8925 3.17826C54.2234 3.17826 53.6396 3.34232 53.1411 3.67044C52.6425 3.99857 52.2547 4.4801 51.9777 5.11505C51.705 5.74999 51.5686 6.52982 51.5686 7.45453C51.5686 8.37925 51.705 9.15908 51.9777 9.79402C52.2547 10.429 52.6425 10.9105 53.1411 11.2386C53.6396 11.5668 54.2234 11.7308 54.8925 11.7308C55.5615 11.7308 56.1453 11.5668 56.6439 11.2386C57.1425 10.9105 57.5281 10.429 57.8009 9.79402C58.0778 9.15908 58.2163 8.37925 58.2163 7.45453Z" fill="#00507F"/>
<path d="M68.5872 14L64.8415 0.90908H67.8649L70.0318 10.005H70.1405L72.5311 0.90908H75.1199L77.5041 10.0241H77.6192L79.7861 0.90908H82.8095L79.0638 14H76.3664L73.8735 5.44104H73.7712L71.2847 14H68.5872Z" fill="#00507F"/>
<path d="M87.3509 14V0.90908H96.1719V3.19104H90.1187V6.31036H95.7181V8.59232H90.1187V11.718H96.1975V14H87.3509Z" fill="#00507F"/>
<path d="M101.432 14V0.90908H106.597C107.586 0.90908 108.43 1.08593 109.128 1.43962C109.832 1.78905 110.366 2.2855 110.733 2.92897C111.104 3.56817 111.289 4.3203 111.289 5.18536C111.289 6.05468 111.101 6.80255 110.726 7.42897C110.351 8.05113 109.808 8.5284 109.096 8.86078C108.389 9.19317 107.533 9.35936 106.527 9.35936H103.069V7.13493H106.079C106.608 7.13493 107.047 7.06249 107.396 6.9176C107.746 6.77272 108.006 6.55539 108.176 6.26561C108.351 5.97584 108.438 5.61576 108.438 5.18536C108.438 4.7507 108.351 4.38422 108.176 4.08593C108.006 3.78763 107.743 3.56178 107.39 3.40837C107.04 3.2507 106.599 3.17186 106.067 3.17186H104.2V14H101.432ZM108.502 8.0426L111.756 14H108.7L105.517 8.0426H108.502Z" fill="#00507F"/>
<path d="M116.305 14V0.90908H125.126V3.19104H119.073V6.31036H124.672V8.59232H119.073V11.718H125.151V14H116.305Z" fill="#00507F"/>
<path d="M135.027 14H130.386V0.90908H135.065C136.382 0.90908 137.516 1.17115 138.466 1.6953C139.416 2.21519 140.147 2.96306 140.658 3.93891C141.174 4.91476 141.432 6.08238 141.432 7.44175C141.432 8.80539 141.174 9.97726 140.658 10.9574C140.147 11.9375 139.412 12.6896 138.453 13.2138C137.499 13.7379 136.357 14 135.027 14ZM133.154 11.6285H134.912C135.73 11.6285 136.418 11.4837 136.977 11.1939C137.539 10.8998 137.961 10.446 138.242 9.83238C138.528 9.21448 138.67 8.4176 138.67 7.44175C138.67 6.47442 138.528 5.68394 138.242 5.0703C137.961 4.45667 137.541 4.00496 136.983 3.71519C136.425 3.42542 135.737 3.28053 134.918 3.28053H133.154V11.6285Z" fill="#00507F"/>
<path d="M160.994 14V0.90908H166.236C167.199 0.90908 168.002 1.05184 168.645 1.33735C169.289 1.62286 169.773 2.01917 170.096 2.52627C170.42 3.02911 170.582 3.60865 170.582 4.2649C170.582 4.77627 170.48 5.22584 170.275 5.61363C170.071 5.99715 169.79 6.31249 169.432 6.55965C169.078 6.80255 168.673 6.97513 168.217 7.0774V7.20525C168.716 7.22655 169.182 7.36718 169.617 7.62712C170.056 7.88706 170.412 8.25141 170.684 8.72016C170.957 9.18465 171.094 9.73863 171.094 10.3821C171.094 11.0767 170.921 11.6967 170.576 12.2422C170.235 12.7834 169.73 13.2116 169.061 13.527C168.392 13.8423 167.567 14 166.587 14H160.994ZM163.762 11.7372H166.018C166.79 11.7372 167.352 11.5902 167.706 11.2962C168.059 10.9979 168.236 10.6016 168.236 10.1072C168.236 9.74502 168.149 9.42542 167.974 9.14843C167.799 8.87144 167.55 8.65411 167.226 8.49644C166.907 8.33877 166.525 8.25993 166.082 8.25993H163.762V11.7372ZM163.762 6.38706H165.814C166.193 6.38706 166.53 6.32101 166.824 6.18891C167.122 6.05255 167.356 5.86078 167.527 5.61363C167.701 5.36647 167.789 5.0703 167.789 4.72513C167.789 4.25212 167.621 3.87073 167.284 3.58096C166.951 3.29118 166.478 3.1463 165.865 3.1463H163.762V6.38706Z" fill="#00507F"/>
<path d="M175.187 0.90908H178.288L181.273 6.54686H181.401L184.386 0.90908H187.486L182.711 9.37215V14H179.962V9.37215L175.187 0.90908Z" fill="#00507F"/>
</svg>
